<?xml version="1.0" encoding="UTF-8" standalone="no"?>
<!-- Created with Inkscape (http://www.inkscape.org/) -->

<svg
   xmlns:dc="http://purl.org/dc/elements/1.1/"
   xmlns:cc="http://creativecommons.org/ns#"
   xmlns:rdf="http://www.w3.org/1999/02/22-rdf-syntax-ns#"
   xmlns:svg="http://www.w3.org/2000/svg"
   xmlns="http://www.w3.org/2000/svg"
   xmlns:sodipodi="http://sodipodi.sourceforge.net/DTD/sodipodi-0.dtd"
   xmlns:inkscape="http://www.inkscape.org/namespaces/inkscape"
   width="300"
   height="300"
   viewBox="0 0 79.374999 79.374999"
   version="1.1"
   id="svg8"
   inkscape:version="0.92.1 r15371"
   sodipodi:docname="section_header.svg">
  <defs
     id="defs2" />
  <sodipodi:namedview
     id="base"
     pagecolor="#ffffff"
     bordercolor="#666666"
     borderopacity="1.0"
     inkscape:pageopacity="0.0"
     inkscape:pageshadow="2"
     inkscape:zoom="1.4"
     inkscape:cx="210.4414"
     inkscape:cy="165.15693"
     inkscape:document-units="mm"
     inkscape:current-layer="layer1"
     showgrid="false"
     fit-margin-top="10"
     fit-margin-left="10"
     fit-margin-right="10"
     fit-margin-bottom="10"
     units="px"
     inkscape:window-width="1920"
     inkscape:window-height="1027"
     inkscape:window-x="-8"
     inkscape:window-y="-8"
     inkscape:window-maximized="1" />
  <metadata
     id="metadata5">
    <rdf:RDF>
      <cc:Work
         rdf:about="">
        <dc:format>image/svg+xml</dc:format>
        <dc:type
           rdf:resource="http://purl.org/dc/dcmitype/StillImage" />
        <dc:title></dc:title>
      </cc:Work>
    </rdf:RDF>
  </metadata>
  <g
     inkscape:label="Layer 1"
     inkscape:groupmode="layer"
     id="layer1"
     transform="translate(-57.958266,-108.03973)">
    <g
       id="g4546"
       transform="matrix(0.22109186,0,0,0.22109186,60.604159,110.68561)">
      <g
         id="g4489">
        <g
           id="g4487">
          <path
             id="path4485"
             d="m 311.175,115.775 c -1.355,-10.186 -1.546,-27.73 7.915,-33.621 0.169,-0.108 0.295,-0.264 0.443,-0.398 7.735,-2.474 13.088,-5.946 8.886,-10.618 L 214.317,36.758 29.56,62.445 c 0,0 -21.157,3.024 -19.267,35.894 1.026,17.89 6.637,26.676 11.544,31 l -15.161,4.569 c -4.208,4.672 1.144,8.145 8.88,10.615 0.147,0.138 0.271,0.293 0.443,0.401 9.455,5.896 9.273,23.438 7.913,33.626 -33.967,9.645 -21.774,12.788 -21.774,12.788 l 7.451,1.803 c -5.241,4.736 -10.446,13.717 -9.471,30.75 1.891,32.864 19.269,35.132 19.269,35.132 l 120.904,39.298 182.49,-44.202 c 0,0 12.197,-3.148 -21.779,-12.794 -1.366,-10.172 -1.556,-27.712 7.921,-33.623 0.174,-0.105 0.301,-0.264 0.442,-0.396 7.736,-2.474 13.084,-5.943 8.881,-10.615 l -7.932,-2.395 c 5.29,-3.19 13.236,-11.527 14.481,-33.183 0.859,-14.896 -3.027,-23.62 -7.525,-28.756 l 15.678,-3.794 c 0.001,0.006 12.198,-3.142 -21.773,-12.788 z m -152.642,-0.421 30.688,-6.307 103.708,-21.312 15.451,-3.178 c -4.937,9.036 -4.73,21.402 -3.913,29.35 0.179,1.798 0.385,3.44 0.585,4.688 L 288.14,122.8 157.243,155.363 Z m -131.823,31.983 15.449,3.178 99.597,20.474 8.701,1.782 v 0 0 l 26.093,5.363 1.287,40.01 L 43.303,184.673 30.04,181.377 c 0.195,-1.25 0.401,-2.89 0.588,-4.693 0.812,-7.942 1.023,-20.311 -3.918,-29.347 z m -6.002,-50.58 c -0.187,-8.743 1.371,-15.066 4.52,-18.28 2.004,-2.052 4.369,-2.479 5.991,-2.479 0.857,0 1.474,0.119 1.516,0.119 l 79.607,25.953 39.717,12.949 -1.303,40.289 -111.422,-31.238 -5.88,-1.647 C 33.238,122.362 32.945,122.32 32.719,122.31 32.26,122.277 21.244,121.263 20.708,96.757 Z M 140.579,280.866 23.28,247.98 c -0.217,-0.063 -0.507,-0.105 -0.733,-0.116 -0.467,-0.031 -11.488,-1.044 -12.021,-25.544 -0.19,-8.754 1.376,-15.071 4.519,-18.288 2.009,-2.052 4.375,-2.479 5.994,-2.479 0.859,0 1.474,0.115 1.519,0.115 0,0 0.005,0 0,0 l 119.316,38.908 z m 153.705,-41.407 c 0.185,1.804 0.391,3.443 0.591,4.693 l -147.812,36.771 1.292,-40.01 31.601,-6.497 4.667,1.129 17.492,-5.685 80.631,-16.569 15.457,-3.18 c -4.942,9.035 -4.737,21.406 -3.919,29.348 z m 8.142,-54.375 c -0.269,0.006 -0.538,0.042 -0.791,0.122 l -11.148,3.121 -106.148,29.764 -1.298,-40.289 34.826,-11.359 84.327,-27.501 c 0.011,-0.005 4.436,-0.988 7.684,2.315 3.144,3.214 4.704,9.537 4.52,18.28 -0.55,24.498 -11.571,25.516 -11.972,25.547 z"
             inkscape:connector-curvature="0" />
        </g>
      </g>
      <g
         id="g4491" />
      <g
         id="g4493" />
      <g
         id="g4495" />
      <g
         id="g4497" />
      <g
         id="g4499" />
      <g
         id="g4501" />
      <g
         id="g4503" />
      <g
         id="g4505" />
      <g
         id="g4507" />
      <g
         id="g4509" />
      <g
         id="g4511" />
      <g
         id="g4513" />
      <g
         id="g4515" />
      <g
         id="g4517" />
      <g
         id="g4519" />
    </g>
  </g>
</svg>
