<?xml version="1.0" encoding="iso-8859-1"?>
<!-- Generator: Adobe Illustrator 18.1.1, SVG Export Plug-In . SVG Version: 6.00 Build 0)  -->
<svg version="1.1" id="Capa_1" xmlns="http://www.w3.org/2000/svg" xmlns:xlink="http://www.w3.org/1999/xlink" x="0px" y="0px"
	 viewBox="0 0 273.555 273.555" style="enable-background:new 0 0 273.555 273.555;" xml:space="preserve">
<path color-rendering="auto" image-rendering="auto" shape-rendering="auto" color-interpolation="sRGB" d="M136.571,0.004
	c-0.53,0.022-1.052,0.128-1.549,0.315l-79.41,29.779c-2.579,0.582-4.259,3.072-3.834,5.682v15.107c-5.796,2.082-10,7.641-10,14.113
	c0,6.473,4.204,12.032,10,14.113V95c-0.039,2.761,2.168,5.032,4.929,5.071s5.032-2.168,5.071-4.929c0.001-0.047,0.001-0.094,0-0.141
	V79.114c5.797-2.081,10-7.64,10-14.113c0-6.473-4.203-12.032-10-14.113v-8.672l20,7.5V85c0.001,2.762,2.241,5,5.002,4.999
	c1.325,0,2.596-0.527,3.533-1.463c3.232-3.232,12.298-6.035,21.465-6.035s18.233,2.803,21.465,6.035c1.953,1.952,5.118,1.952,7.07,0
	c3.232-3.232,12.298-6.035,21.465-6.035s18.233,2.803,21.465,6.035c1.954,1.952,5.12,1.951,7.072-0.003
	c0.937-0.937,1.463-2.208,1.463-3.533V49.715l26.756-10.033c2.586-0.97,3.895-3.853,2.924-6.439
	c-0.507-1.351-1.573-2.417-2.924-2.924l-80-30C137.907,0.084,137.24-0.023,136.571,0.004z M136.778,10.34L202.538,35l-65.76,24.658
	L71.018,35L136.778,10.34z M136.778,30c-2.761,0-5,2.239-5,5s2.239,5,5,5s5-2.239,5-5S139.539,30,136.778,30z M91.778,53.465
	l43.244,16.217c1.132,0.425,2.38,0.425,3.512,0l43.244-16.217v22.65c-5.962-2.52-12.944-3.615-20-3.615
	c-9.121,0-18.283,1.594-25,6.125c-6.717-4.531-15.879-6.125-25-6.125c-7.055,0-14.038,1.096-20,3.615V53.465z M56.778,60
	c2.821,0,5,2.179,5,5c0,2.821-2.179,5-5,5s-5-2.179-5-5C51.778,62.18,53.957,60,56.778,60z M185.136,94.678
	c-2.759,0.131-4.888,2.474-4.757,5.233c0.008,0.165,0.024,0.33,0.048,0.494c2.438,18.308-5.449,36.39-19.953,46.25
	c-14.504,9.861-32.872,9.863-47.379,0.01c-14.507-9.856-22.398-27.935-19.965-46.244c0.352-2.739-1.583-5.245-4.322-5.598
	c-2.723-0.35-5.22,1.561-5.592,4.281c-2.918,21.951,6.466,43.743,24.26,55.832c2.02,1.372,4.11,2.582,6.25,3.643
	c2.382,8.317-0.072,13.815-6.01,18.682c-6.406,5.25-17.588,8.856-30.656,9.434c-14.819,0.655-26.219,5.706-33.811,13.443
	s-11.241,17.948-11.471,28.264c0,0.037,0,0.074,0,0.111v35h-15c-2.761-0.039-5.032,2.168-5.071,4.929
	c-0.039,2.761,2.168,5.032,4.929,5.071c0.047,0.001,0.094,0.001,0.141,0h141.861l0.086,0.043l0.021-0.043h19.893l0.086,0.043
	l0.021-0.043h78.031c2.761,0.039,5.032-2.168,5.071-4.929c0.039-2.761-2.168-5.032-4.929-5.071c-0.047-0.001-0.094-0.001-0.141,0
	h-15v-35c0-0.037,0-0.074,0-0.111c-0.23-10.316-3.877-20.526-11.469-28.264s-18.992-12.788-33.811-13.443
	c-13.068-0.578-24.25-4.183-30.656-9.434c-5.938-4.867-8.391-10.365-6.008-18.684c2.144-1.063,4.238-2.275,6.262-3.65
	c17.79-12.094,27.167-33.89,24.244-55.84c-0.309-2.607-2.581-4.531-5.203-4.406L185.136,94.678z M124.35,162.475
	c8.167,2.021,16.689,2.023,24.855,0c-0.359,9.016,3.602,17.032,10.295,22.518c6.909,5.663,16.297,9.168,26.941,10.766
	l-33.875,67.752h-11.021c-0.651-2.087-2.582-3.509-4.768-3.512c-2.187,0.001-4.12,1.423-4.771,3.512H41.778v-34.908
	c0.186-8.13,2.968-15.715,8.609-21.465c5.646-5.755,14.29-9.888,27.113-10.455c14.574-0.644,27.628-4.373,36.555-11.69
	c6.693-5.486,10.655-13.503,10.295-22.52L124.35,162.475z M197.128,196.752c2.981,0.182,5.734,0.557,8.266,1.107l-32.826,65.652
	h-8.82L197.128,196.752z M136.778,200c-2.761,0-5,2.239-5,5s2.239,5,5,5s5-2.239,5-5S139.539,200,136.778,200z M214.919,201.168
	c3.271,1.654,6.003,3.68,8.25,5.971c5.646,5.755,8.428,13.346,8.609,21.484v34.889h-48.031L214.919,201.168z M136.778,220
	c-2.761,0-5,2.239-5,5s2.239,5,5,5s5-2.239,5-5S139.539,220,136.778,220z M136.778,240c-2.761,0-5,2.239-5,5l0,0
	c0,2.761,2.239,5,5,5s5-2.239,5-5S139.539,240,136.778,240L136.778,240z"/>
<g>
</g>
<g>
</g>
<g>
</g>
<g>
</g>
<g>
</g>
<g>
</g>
<g>
</g>
<g>
</g>
<g>
</g>
<g>
</g>
<g>
</g>
<g>
</g>
<g>
</g>
<g>
</g>
<g>
</g>
</svg>
