<?xml version="1.0" encoding="UTF-8" standalone="no"?>
<!-- Generator: Adobe Illustrator 18.1.1, SVG Export Plug-In . SVG Version: 6.00 Build 0)  -->

<svg
   xmlns:dc="http://purl.org/dc/elements/1.1/"
   xmlns:cc="http://creativecommons.org/ns#"
   xmlns:rdf="http://www.w3.org/1999/02/22-rdf-syntax-ns#"
   xmlns:svg="http://www.w3.org/2000/svg"
   xmlns="http://www.w3.org/2000/svg"
   xmlns:sodipodi="http://sodipodi.sourceforge.net/DTD/sodipodi-0.dtd"
   xmlns:inkscape="http://www.inkscape.org/namespaces/inkscape"
   version="1.1"
   id="Capa_1"
   x="0px"
   y="0px"
   viewBox="0 0 300.00001 300.00001"
   xml:space="preserve"
   inkscape:version="0.91 r13725"
   sodipodi:docname="assessment.svg"
   width="300"
   height="300"
   inkscape:export-filename="/home/marco/proj/python4cl/Templates/assessment.png"
   inkscape:export-xdpi="300"
   inkscape:export-ydpi="300"><metadata
     id="metadata39"><rdf:RDF><cc:Work
         rdf:about=""><dc:format>image/svg+xml</dc:format><dc:type
           rdf:resource="http://purl.org/dc/dcmitype/StillImage" /><dc:title></dc:title></cc:Work></rdf:RDF></metadata><defs
     id="defs37" /><sodipodi:namedview
     pagecolor="#ffffff"
     bordercolor="#666666"
     borderopacity="1"
     objecttolerance="10"
     gridtolerance="10"
     guidetolerance="10"
     inkscape:pageopacity="0"
     inkscape:pageshadow="2"
     inkscape:window-width="1855"
     inkscape:window-height="1056"
     id="namedview35"
     showgrid="false"
     inkscape:zoom="1"
     inkscape:cx="136.7775"
     inkscape:cy="136.7775"
     inkscape:window-x="1985"
     inkscape:window-y="24"
     inkscape:window-maximized="1"
     inkscape:current-layer="Capa_1" /><path
     d="m 149.7892,10.00421 c -0.54249,0.02252 -1.07678,0.131015 -1.58549,0.32242 L 66.92312,40.807107 c -2.639751,0.595709 -4.359325,3.144364 -3.924314,5.815845 l 0,15.462862 c -5.932531,2.131044 -10.235561,7.820992 -10.235561,14.445447 0,6.625479 4.30303,12.315431 10.235561,14.445451 l 0,16.261228 c -0.03992,2.82604 2.21907,5.15054 5.045108,5.19046 2.826039,0.0399 5.150534,-2.21907 5.190453,-5.04511 10e-4,-0.0481 10e-4,-0.0962 0,-0.14432 l 0,-16.261238 c 5.933555,-2.13002 10.235561,-7.819969 10.235561,-14.445447 0,-6.625479 -4.302006,-12.315427 -10.235561,-14.445447 l 0,-8.876279 20.471122,7.676671 0,36.115152 c 0.001,2.82707 2.293789,5.117778 5.119827,5.116758 1.356214,0 2.657154,-0.53941 3.616224,-1.49746 3.30813,-3.308128 12.58769,-6.177158 21.97063,-6.177158 9.38294,0 18.6625,2.86903 21.97063,6.177158 1.99901,1.99798 5.23856,1.99798 7.23654,0 3.30814,-3.308128 12.5877,-6.177158 21.97064,-6.177158 9.38293,0 18.66249,2.86903 21.97063,6.177158 2.00003,1.99798 5.2406,1.99696 7.23859,-0.003 0.95907,-0.959068 1.49746,-2.260008 1.49746,-3.616228 l 0,-36.116175 27.38626,-10.269339 c 2.64692,-0.992849 3.98676,-3.943761 2.99288,-6.590677 -0.51894,-1.382825 -1.61005,-2.473935 -2.99288,-2.992878 L 151.79844,10.32663 c -0.64177,-0.240536 -1.32448,-0.3500557 -2.00924,-0.32242 z m 0.21187,10.579476 67.30905,25.240893 L 150.00107,71.063425 82.692025,45.824579 150.00107,20.583686 Z m 0,20.123112 c -2.82603,0 -5.11778,2.291742 -5.11778,5.117781 0,2.826038 2.29175,5.11778 5.11778,5.11778 2.82604,0 5.11778,-2.291742 5.11778,-5.11778 0,-2.826039 -2.29174,-5.117781 -5.11778,-5.117781 z m -46.06002,24.017744 44.26266,16.599009 c 1.15866,0.435011 2.43606,0.435011 3.59473,0 l 44.26266,-16.599009 0,23.18355 c -6.10244,-2.579363 -13.24891,-3.70016 -20.47112,-3.70016 -9.33586,0 -18.71368,1.631551 -25.58891,6.26928 -6.87522,-4.637729 -16.25304,-6.26928 -25.5889,-6.26928 -7.22119,0 -14.36868,1.12182 -20.47112,3.70016 l 0,-23.18355 z m -35.824463,6.688939 c 2.887451,0 5.11778,2.230329 5.11778,5.11778 0,2.887452 -2.230329,5.117781 -5.11778,5.117781 -2.887452,0 -5.117781,-2.230329 -5.117781,-5.117781 0,-2.886428 2.230329,-5.11778 5.117781,-5.11778 z M 199.4982,106.90836 c -2.82399,0.13409 -5.00314,2.53228 -4.86906,5.35627 0.008,0.16889 0.0246,0.33777 0.0491,0.50564 2.49543,18.73926 -5.57735,37.2472 -20.42301,47.33946 -14.84566,10.09329 -33.64634,10.09534 -48.49507,0.0102 -14.84872,-10.08817 -22.9256,-28.59304 -20.43529,-47.33333 0.36029,-2.80352 -1.62029,-5.36855 -4.42381,-5.72986 -2.787145,-0.35825 -5.342965,1.59777 -5.723727,4.38184 -2.986737,22.46808 6.618317,44.77341 24.831467,57.14718 2.06759,1.40432 4.20682,2.64282 6.39723,3.72882 2.43811,8.51291 -0.0737,14.14042 -6.15157,19.12207 -6.5569,5.37367 -18.00231,9.06461 -31.378139,9.65623 -15.168077,0.67043 -26.836617,5.84041 -34.607455,13.75966 -7.770837,7.91926 -11.505794,18.37079 -11.741211,28.92979 0,0.0379 0,0.0757 0,0.11362 l 0,35.82446 -15.353342,0 c -2.826038,-0.0399 -5.150534,2.21907 -5.190453,5.04511 -0.03992,2.82604 2.21907,5.15053 5.045108,5.19045 0.04811,0.001 0.09621,0.001 0.144322,0 l 145.20269,0 0.088,0.044 0.0215,-0.044 20.3616,0 0.088,0.044 0.0215,-0.044 79.86911,0 c 2.82604,0.0399 5.15053,-2.21907 5.19045,-5.04511 0.0399,-2.82603 -2.21907,-5.15053 -5.04511,-5.19045 -0.0481,-0.001 -0.0962,-0.001 -0.14432,0 l -15.35334,0 0,-35.82446 c 0,-0.0379 0,-0.0757 0,-0.11362 -0.23542,-10.559 -3.96833,-21.00951 -11.73917,-28.92979 -7.77083,-7.92027 -19.43937,-13.08923 -34.60745,-13.75966 -13.37583,-0.59162 -24.82124,-4.28153 -31.37814,-9.65623 -6.07787,-4.98165 -8.58866,-10.60916 -6.14952,-19.12412 2.1945,-1.08804 4.33783,-2.32859 6.40951,-3.73598 18.20906,-12.37889 27.80695,-34.68832 24.81509,-57.15537 -0.31628,-2.66841 -2.6418,-4.63773 -5.32556,-4.50979 l 0,-0.003 z m -62.21788,69.39403 c 8.35938,2.06861 17.08213,2.07066 25.44049,0 -0.36746,9.22838 3.68684,17.43321 10.5375,23.04844 7.07175,5.7964 16.6809,9.38396 27.57563,11.0196 l -34.67296,69.34797 -11.28061,0 c -0.66634,-2.13616 -2.64283,-3.59165 -4.88032,-3.59472 -2.23852,0.001 -4.21705,1.45652 -4.88339,3.59472 l -92.353415,0 0,-35.73029 c 0.190382,-8.32151 3.037915,-16.08519 8.811795,-21.97063 5.778997,-5.89057 14.626616,-10.12093 27.751676,-10.70128 14.917304,-0.65917 28.278804,-4.47601 37.416094,-11.96537 6.85066,-5.61523 10.90599,-13.82108 10.53751,-23.05049 l 0,0.002 z m 74.49236,35.08443 c 3.05122,0.18629 5.86907,0.57012 8.46072,1.13308 l -33.59925,67.1985 -9.02777,0 34.1663,-68.33158 z m -61.77161,3.32451 c -2.82603,0 -5.11778,2.29175 -5.11778,5.11778 0,2.82604 2.29175,5.11778 5.11778,5.11778 2.82604,0 5.11778,-2.29174 5.11778,-5.11778 0,-2.82603 -2.29174,-5.11778 -5.11778,-5.11778 z m 79.9817,1.19552 c 3.34805,1.69296 6.14441,3.76668 8.44434,6.11165 5.77899,5.89057 8.62653,13.66038 8.81179,21.99008 l 0,35.71085 -49.16242,0 31.90629,-63.81258 z m -79.9817,19.27561 c -2.82603,0 -5.11778,2.29174 -5.11778,5.11778 0,2.82603 2.29175,5.11778 5.11778,5.11778 2.82604,0 5.11778,-2.29175 5.11778,-5.11778 0,-2.82604 -2.29174,-5.11778 -5.11778,-5.11778 z m 0,20.47112 c -2.82603,0 -5.11778,2.29174 -5.11778,5.11778 l 0,0 c 0,2.82604 2.29175,5.11778 5.11778,5.11778 2.82604,0 5.11778,-2.29174 5.11778,-5.11778 0,-2.82604 -2.29174,-5.11778 -5.11778,-5.11778 l 0,0 z"
     id="path3"
     inkscape:connector-curvature="0"
     style="color-interpolation:sRGB;color-rendering:auto;image-rendering:auto;shape-rendering:auto" /><g
     id="g5"
     transform="translate(0,26.445007)" /><g
     id="g7"
     transform="translate(0,26.445007)" /><g
     id="g9"
     transform="translate(0,26.445007)" /><g
     id="g11"
     transform="translate(0,26.445007)" /><g
     id="g13"
     transform="translate(0,26.445007)" /><g
     id="g15"
     transform="translate(0,26.445007)" /><g
     id="g17"
     transform="translate(0,26.445007)" /><g
     id="g19"
     transform="translate(0,26.445007)" /><g
     id="g21"
     transform="translate(0,26.445007)" /><g
     id="g23"
     transform="translate(0,26.445007)" /><g
     id="g25"
     transform="translate(0,26.445007)" /><g
     id="g27"
     transform="translate(0,26.445007)" /><g
     id="g29"
     transform="translate(0,26.445007)" /><g
     id="g31"
     transform="translate(0,26.445007)" /><g
     id="g33"
     transform="translate(0,26.445007)" /></svg>