<?xml version="1.0" encoding="UTF-8" standalone="no"?>
<!-- Generator: Adobe Illustrator 18.1.1, SVG Export Plug-In . SVG Version: 6.00 Build 0)  -->

<svg
   xmlns:dc="http://purl.org/dc/elements/1.1/"
   xmlns:cc="http://creativecommons.org/ns#"
   xmlns:rdf="http://www.w3.org/1999/02/22-rdf-syntax-ns#"
   xmlns:svg="http://www.w3.org/2000/svg"
   xmlns="http://www.w3.org/2000/svg"
   xmlns:sodipodi="http://sodipodi.sourceforge.net/DTD/sodipodi-0.dtd"
   xmlns:inkscape="http://www.inkscape.org/namespaces/inkscape"
   version="1.1"
   id="Capa_1"
   x="0px"
   y="0px"
   viewBox="0 0 300 300"
   xml:space="preserve"
   inkscape:version="0.91 r13725"
   sodipodi:docname="example.svg"
   width="300"
   height="300"
   inkscape:export-filename="/home/marco/proj/python4cl/Templates/example.png"
   inkscape:export-xdpi="300"
   inkscape:export-ydpi="300"><metadata
     id="metadata47"><rdf:RDF><cc:Work
         rdf:about=""><dc:format>image/svg+xml</dc:format><dc:type
           rdf:resource="http://purl.org/dc/dcmitype/StillImage" /><dc:title></dc:title></cc:Work></rdf:RDF></metadata><defs
     id="defs45" /><sodipodi:namedview
     pagecolor="#ffffff"
     bordercolor="#666666"
     borderopacity="1"
     objecttolerance="10"
     gridtolerance="10"
     guidetolerance="10"
     inkscape:pageopacity="0"
     inkscape:pageshadow="2"
     inkscape:window-width="1855"
     inkscape:window-height="1056"
     id="namedview43"
     showgrid="false"
     inkscape:zoom="0.48527419"
     inkscape:cx="243.1615"
     inkscape:cy="243.1615"
     inkscape:window-x="1985"
     inkscape:window-y="24"
     inkscape:window-maximized="1"
     inkscape:current-layer="Capa_1" /><g
     id="g3"
     transform="matrix(0.57574888,0,0,0.57574888,10.000076,10.000039)"><g
       id="g5"><path
         style="fill:#010002"
         d="m 363.604,422.234 0,-28.052 44.788,34.585 c 1.317,1.017 2.909,1.54 4.44,1.54 2.159,0 4.318,-0.986 5.755,-2.824 2.467,-3.185 1.877,-7.762 -1.285,-10.214 l -53.67,-41.472 0,-130.557 102.734,0 c 7.003,0 12.706,-5.694 12.706,-12.722 l 0,-165.11 7.251,0 0,-23.599 -120.428,0 0,-3.607 c 0,-5.012 -4.064,-9.094 -9.067,-9.094 l -0.941,0 c -5.009,0 -9.099,4.074 -9.099,9.094 l 0,3.607 -120.433,0 0,23.599 7.27,0 0,39.053 -23.255,18.523 c -5.901,-5.09 -14.755,-5.571 -21.218,-0.666 -31.955,24.264 -43.377,29.613 -76.383,8.671 -2.631,-1.668 -13.944,-7.576 -19.449,-8.896 -0.038,-0.007 -0.076,-0.007 -0.113,-0.021 L 82.698,135.108 71.852,124.194 c -5.308,1.292 -17.156,7.479 -18.105,8.069 -31.334,19.21 -59.417,48.733 -52.761,133.835 0.699,8.842 8.1,15.569 16.826,15.569 0.445,0 0.885,-0.017 1.345,-0.044 9.295,-0.731 16.25,-8.859 15.525,-18.18 -2.059,-26.275 -0.459,-45.348 3.465,-59.63 l 0,54.266 c 0,5.919 1.481,11.347 4.022,16.146 L 29.843,433.696 c -0.849,11.003 7.37,20.594 18.37,21.453 0.523,0.047 1.05,0.063 1.563,0.063 10.326,0 19.075,-7.97 19.886,-18.432 l 9.882,-140.386 c 0.721,0.03 2.418,0.091 3.162,0.091 1.432,0 1.885,-0.061 3.301,-0.182 l 13.125,140.648 c 0.894,10.406 9.613,18.262 19.869,18.262 0.576,0 1.151,-0.014 1.738,-0.082 10.992,-0.94 19.128,-10.629 18.179,-21.603 0,0 -14.588,-159.47 -14.618,-159.783 1.81,-3.063 2.953,-11.069 2.953,-15.646 l 0,-80.362 c 6.14,1.667 12.034,2.44 17.711,2.44 23.599,0 43.762,-13.111 64.618,-28.939 6.432,-4.885 8.369,-13.467 5.12,-20.508 l 18.93,-15.081 -0.021,116.868 c 0,7.027 5.704,12.722 12.731,12.722 l 102.714,0 0,130.559 -53.699,41.472 c -3.186,2.452 -3.754,7.029 -1.285,10.214 1.411,1.838 3.588,2.824 5.77,2.824 1.57,0 3.111,-0.523 4.424,-1.54 l 44.814,-34.585 0,53.752 c 0,4.053 3.251,7.28 7.266,7.28 3.999,0 7.259,-3.243 7.259,-7.28 l -0.001,-25.701 M 82.788,221.253 l -0.199,0 -10.495,-14.371 10.495,-70.16 0.199,0 10.501,70.16 -10.501,14.371 z m 385.389,11.288 c -0.031,0.998 -0.823,1.81 -1.824,1.81 l -219.997,0 c -1.016,0 -1.813,-0.812 -1.813,-1.81 l 0.016,-125.605 32.602,-25.979 -4.485,-5.617 -28.116,22.394 0.008,-30.325 223.613,0 -0.004,165.132 0,0 z"
         id="path7"
         inkscape:connector-curvature="0" /><path
         style="fill:#010002"
         d="m 256.479,112.976 c 0,7.078 5.74,12.834 12.858,12.834 0.942,0 1.847,-0.105 2.711,-0.292 l 39.617,39.636 c -0.181,0.876 -0.277,1.783 -0.277,2.725 0,7.087 5.749,12.842 12.851,12.842 7.103,0 12.86,-5.755 12.86,-12.842 0,-0.71 -0.075,-1.394 -0.183,-2.052 l 30.482,-15.513 c 2.317,3.521 6.249,5.851 10.793,5.851 1.164,0 2.259,-0.157 3.324,-0.441 l 12.027,12.024 c -1.209,1.958 -1.913,4.235 -1.913,6.675 0,7.097 5.757,12.861 12.887,12.861 7.104,0 12.842,-5.764 12.842,-12.861 0,-3.125 -1.099,-5.988 -2.99,-8.212 l 24.668,-37.125 c 0.927,0.228 1.958,0.359 2.975,0.359 7.116,0 12.871,-5.756 12.871,-12.861 0,-7.094 -5.755,-12.864 -12.871,-12.864 -7.101,0 -12.858,5.771 -12.858,12.864 0,3.667 1.531,6.945 3.992,9.292 l -24.219,36.481 c -1.393,-0.497 -2.909,-0.788 -4.44,-0.788 -2.234,0 -4.304,0.56 -6.159,1.569 l -10.9,-10.907 c 2.242,-2.313 3.625,-5.457 3.625,-8.91 0,-7.098 -5.769,-12.853 -12.863,-12.853 -7.115,0 -12.858,5.755 -12.858,12.853 0,0.184 0.008,0.367 0.029,0.534 l -31.155,15.869 c -2.37,-2.87 -5.936,-4.694 -9.957,-4.694 -3.654,0 -6.938,1.517 -9.284,3.965 l -36.736,-36.747 c 2.452,-2.35 3.983,-5.621 3.983,-9.283 0,-7.098 -5.771,-12.854 -12.857,-12.854 -7.132,0.01 -12.875,5.767 -12.875,12.865 z"
         id="path9"
         inkscape:connector-curvature="0" /><circle
         style="fill:#010002"
         cx="82.739998"
         cy="78.146004"
         r="43.522999"
         id="circle11" /></g></g><g
     id="g13"
     transform="translate(0,-186.323)" /><g
     id="g15"
     transform="translate(0,-186.323)" /><g
     id="g17"
     transform="translate(0,-186.323)" /><g
     id="g19"
     transform="translate(0,-186.323)" /><g
     id="g21"
     transform="translate(0,-186.323)" /><g
     id="g23"
     transform="translate(0,-186.323)" /><g
     id="g25"
     transform="translate(0,-186.323)" /><g
     id="g27"
     transform="translate(0,-186.323)" /><g
     id="g29"
     transform="translate(0,-186.323)" /><g
     id="g31"
     transform="translate(0,-186.323)" /><g
     id="g33"
     transform="translate(0,-186.323)" /><g
     id="g35"
     transform="translate(0,-186.323)" /><g
     id="g37"
     transform="translate(0,-186.323)" /><g
     id="g39"
     transform="translate(0,-186.323)" /><g
     id="g41"
     transform="translate(0,-186.323)" /></svg>