<?xml version="1.0" encoding="iso-8859-1"?>
<!-- Generator: Adobe Illustrator 18.1.1, SVG Export Plug-In . SVG Version: 6.00 Build 0)  -->
<svg version="1.1" id="Capa_1" xmlns="http://www.w3.org/2000/svg" xmlns:xlink="http://www.w3.org/1999/xlink" x="0px" y="0px"
	 viewBox="0 0 486.323 486.323" style="enable-background:new 0 0 486.323 486.323;" xml:space="preserve">
<g>
	<g>
		<path style="fill:#010002;" d="M363.604,422.234v-28.052l44.788,34.585c1.317,1.017,2.909,1.54,4.44,1.54
			c2.159,0,4.318-0.986,5.755-2.824c2.467-3.185,1.877-7.762-1.285-10.214l-53.67-41.472V245.24h102.734
			c7.003,0,12.706-5.694,12.706-12.722V67.408h7.251V43.809H365.895v-3.607c0-5.012-4.064-9.094-9.067-9.094h-0.941
			c-5.009,0-9.099,4.074-9.099,9.094v3.607H226.355v23.599h7.27v39.053l-23.255,18.523c-5.901-5.09-14.755-5.571-21.218-0.666
			c-31.955,24.264-43.377,29.613-76.383,8.671c-2.631-1.668-13.944-7.576-19.449-8.896c-0.038-0.007-0.076-0.007-0.113-0.021
			l-10.509,11.036l-10.846-10.914c-5.308,1.292-17.156,7.479-18.105,8.069C22.413,151.473-5.67,180.996,0.986,266.098
			c0.699,8.842,8.1,15.569,16.826,15.569c0.445,0,0.885-0.017,1.345-0.044c9.295-0.731,16.25-8.859,15.525-18.18
			c-2.059-26.275-0.459-45.348,3.465-59.63v54.266c0,5.919,1.481,11.347,4.022,16.146L29.843,433.696
			c-0.849,11.003,7.37,20.594,18.37,21.453c0.523,0.047,1.05,0.063,1.563,0.063c10.326,0,19.075-7.97,19.886-18.432l9.882-140.386
			c0.721,0.03,2.418,0.091,3.162,0.091c1.432,0,1.885-0.061,3.301-0.182l13.125,140.648c0.894,10.406,9.613,18.262,19.869,18.262
			c0.576,0,1.151-0.014,1.738-0.082c10.992-0.94,19.128-10.629,18.179-21.603c0,0-14.588-159.47-14.618-159.783
			c1.81-3.063,2.953-11.069,2.953-15.646v-80.362c6.14,1.667,12.034,2.44,17.711,2.44c23.599,0,43.762-13.111,64.618-28.939
			c6.432-4.885,8.369-13.467,5.12-20.508l18.93-15.081l-0.021,116.868c0,7.027,5.704,12.722,12.731,12.722h102.714v130.559
			l-53.699,41.472c-3.186,2.452-3.754,7.029-1.285,10.214c1.411,1.838,3.588,2.824,5.77,2.824c1.57,0,3.111-0.523,4.424-1.54
			l44.814-34.585v53.752c0,4.053,3.251,7.28,7.266,7.28c3.999,0,7.259-3.243,7.259-7.28L363.604,422.234 M82.788,221.253h-0.199
			l-10.495-14.371l10.495-70.16h0.199l10.501,70.16L82.788,221.253z M468.177,232.541c-0.031,0.998-0.823,1.81-1.824,1.81H246.356
			c-1.016,0-1.813-0.812-1.813-1.81l0.016-125.605l32.602-25.979l-4.485-5.617L244.56,97.734l0.008-30.325h223.613L468.177,232.541
			L468.177,232.541z"/>
		<path style="fill:#010002;" d="M256.479,112.976c0,7.078,5.74,12.834,12.858,12.834c0.942,0,1.847-0.105,2.711-0.292
			l39.617,39.636c-0.181,0.876-0.277,1.783-0.277,2.725c0,7.087,5.749,12.842,12.851,12.842c7.103,0,12.86-5.755,12.86-12.842
			c0-0.71-0.075-1.394-0.183-2.052l30.482-15.513c2.317,3.521,6.249,5.851,10.793,5.851c1.164,0,2.259-0.157,3.324-0.441
			l12.027,12.024c-1.209,1.958-1.913,4.235-1.913,6.675c0,7.097,5.757,12.861,12.887,12.861c7.104,0,12.842-5.764,12.842-12.861
			c0-3.125-1.099-5.988-2.99-8.212l24.668-37.125c0.927,0.228,1.958,0.359,2.975,0.359c7.116,0,12.871-5.756,12.871-12.861
			c0-7.094-5.755-12.864-12.871-12.864c-7.101,0-12.858,5.771-12.858,12.864c0,3.667,1.531,6.945,3.992,9.292l-24.219,36.481
			c-1.393-0.497-2.909-0.788-4.44-0.788c-2.234,0-4.304,0.56-6.159,1.569l-10.9-10.907c2.242-2.313,3.625-5.457,3.625-8.91
			c0-7.098-5.769-12.853-12.863-12.853c-7.115,0-12.858,5.755-12.858,12.853c0,0.184,0.008,0.367,0.029,0.534l-31.155,15.869
			c-2.37-2.87-5.936-4.694-9.957-4.694c-3.654,0-6.938,1.517-9.284,3.965l-36.736-36.747c2.452-2.35,3.983-5.621,3.983-9.283
			c0-7.098-5.771-12.854-12.857-12.854C262.222,100.121,256.479,105.878,256.479,112.976z"/>
		<circle style="fill:#010002;" cx="82.74" cy="78.146" r="43.523"/>
	</g>
</g>
<g>
</g>
<g>
</g>
<g>
</g>
<g>
</g>
<g>
</g>
<g>
</g>
<g>
</g>
<g>
</g>
<g>
</g>
<g>
</g>
<g>
</g>
<g>
</g>
<g>
</g>
<g>
</g>
<g>
</g>
</svg>
