<?xml version="1.0" encoding="UTF-8" standalone="no"?>
<!-- Generator: Adobe Illustrator 18.1.1, SVG Export Plug-In . SVG Version: 6.00 Build 0)  -->

<svg
   xmlns:dc="http://purl.org/dc/elements/1.1/"
   xmlns:cc="http://creativecommons.org/ns#"
   xmlns:rdf="http://www.w3.org/1999/02/22-rdf-syntax-ns#"
   xmlns:svg="http://www.w3.org/2000/svg"
   xmlns="http://www.w3.org/2000/svg"
   xmlns:sodipodi="http://sodipodi.sourceforge.net/DTD/sodipodi-0.dtd"
   xmlns:inkscape="http://www.inkscape.org/namespaces/inkscape"
   version="1.1"
   id="Capa_1"
   x="0px"
   y="0px"
   viewBox="0 0 300.00001 300.00001"
   xml:space="preserve"
   inkscape:version="0.91 r13725"
   sodipodi:docname="exercise.svg"
   width="300"
   height="300"
   inkscape:export-filename="/home/marco/proj/python4cl/Templates/exercise.png"
   inkscape:export-xdpi="300"
   inkscape:export-ydpi="300"><metadata
     id="metadata51"><rdf:RDF><cc:Work
         rdf:about=""><dc:format>image/svg+xml</dc:format><dc:type
           rdf:resource="http://purl.org/dc/dcmitype/StillImage" /><dc:title></dc:title></cc:Work></rdf:RDF></metadata><defs
     id="defs49" /><sodipodi:namedview
     pagecolor="#ffffff"
     bordercolor="#666666"
     borderopacity="1"
     objecttolerance="10"
     gridtolerance="10"
     guidetolerance="10"
     inkscape:pageopacity="0"
     inkscape:pageshadow="2"
     inkscape:window-width="1855"
     inkscape:window-height="1056"
     id="namedview47"
     showgrid="false"
     inkscape:zoom="0.47981134"
     inkscape:cx="245.92999"
     inkscape:cy="245.92999"
     inkscape:window-x="1985"
     inkscape:window-y="24"
     inkscape:window-maximized="1"
     inkscape:current-layer="Capa_1" /><g
     id="g3"
     transform="matrix(0.56926739,0,0,0.56926739,10.000001,9.999786)"><g
       id="g5"><polygon
         style="fill:#010002"
         points="0,205.709 0,232.497 21.404,232.497 21.404,476.057 198.398,476.057 198.398,232.497 250.354,232.497 250.354,205.709 "
         id="polygon7" /><path
         style="fill:#010002"
         d="m 379.818,327.33 c 0.046,0 0.129,0.03 0.183,0.03 32.649,0.951 51.284,-8.78 54.174,-34.646 l 13.244,-119.099 c 2.47,-22.19 -15.224,-39.122 -32.9,-45.6 l -0.143,-0.046 c 0,0 -6.303,-2.05 -12.067,-2.836 -6.008,-0.801 -11.922,0.282 -11.922,0.282 -13.808,1.61 -27.448,11.374 -27.448,11.374 -25.395,18.087 -64.764,21.995 -117.099,11.602 -13.166,-2.649 -25.965,5.946 -28.58,19.107 -2.616,13.164 5.938,25.955 19.106,28.572 21.94,4.375 42.346,6.539 61.17,6.539 17.107,0 32.475,-1.894 46.921,-5.497 l -0.115,1.68 -8.44,75.909 c -44.21,1.597 -72.062,10.705 -82.979,27.249 -14.765,22.482 -38.754,113.12 -45.75,140.925 -3.616,14.363 5.113,28.938 19.478,32.563 2.185,0.549 4.39,0.823 6.561,0.823 12.004,0 22.952,-8.122 26.008,-20.285 12.329,-48.979 29.363,-99.745 37.141,-115.817 6.444,-13.978 49.075,-14.722 83.457,-12.829 z"
         id="path9"
         inkscape:connector-curvature="0" /><circle
         style="fill:#010002"
         cx="395.883"
         cy="67.804001"
         r="54.305"
         id="circle11" /><path
         style="fill:#010002"
         d="m 484.646,274.65 7.213,-93.507 c 0.019,-0.53 -0.18,-1.045 -0.548,-1.427 -0.369,-0.382 -0.876,-0.598 -1.407,-0.598 l -29.679,0 c -1.054,0 -1.918,0.834 -1.956,1.888 l -6.706,93.575 c -0.883,28.85 -9.383,64.332 -57.84,64.332 -0.687,0 -53.585,-0.119 -53.585,-0.119 -10e-4,0 -10e-4,0 -10e-4,0 -0.52,0 -1.016,0.206 -1.384,0.572 -0.366,0.367 -0.573,0.866 -0.573,1.385 l 0,28.914 c 0,1.081 0.876,1.957 1.957,1.957 l 48.645,-0.002 0,66.461 -15.273,0 c -19.994,0 -36.885,17.552 -36.885,38.325 0,1.081 0.876,1.956 1.956,1.956 l 19.266,0 c 1.081,0 1.957,-0.875 1.957,-1.956 0,-7.642 6.272,-14.098 13.698,-14.098 l 63.341,0 c 7.43,0 13.706,6.456 13.706,14.098 0,1.081 0.877,1.956 1.957,1.956 l 19.273,0 c 1.08,0 1.956,-0.875 1.956,-1.956 0,-20.773 -16.895,-38.325 -36.893,-38.325 l -15.259,0 0,-70.026 c 47.765,-1.291 58.848,-48.624 63.064,-93.405 z"
         id="path13"
         inkscape:connector-curvature="0" /><path
         style="fill:#010002"
         d="m 203.534,177.154 -91.717,0 L 80.775,63.399 c -0.219,-0.8 -1.043,-1.273 -1.842,-1.052 l -16.552,4.516 c -0.384,0.105 -0.71,0.358 -0.907,0.703 -0.198,0.346 -0.25,0.755 -0.145,1.139 L 96.12,196.193 c 0.178,0.652 0.771,1.105 1.447,1.105 l 105.968,0 c 0.829,0 1.5,-0.671 1.5,-1.5 l 0,-17.145 c -0.001,-0.828 -0.672,-1.499 -1.501,-1.499 z"
         id="path15"
         inkscape:connector-curvature="0" /></g></g><g
     id="g17"
     transform="translate(0,-191.85999)" /><g
     id="g19"
     transform="translate(0,-191.85999)" /><g
     id="g21"
     transform="translate(0,-191.85999)" /><g
     id="g23"
     transform="translate(0,-191.85999)" /><g
     id="g25"
     transform="translate(0,-191.85999)" /><g
     id="g27"
     transform="translate(0,-191.85999)" /><g
     id="g29"
     transform="translate(0,-191.85999)" /><g
     id="g31"
     transform="translate(0,-191.85999)" /><g
     id="g33"
     transform="translate(0,-191.85999)" /><g
     id="g35"
     transform="translate(0,-191.85999)" /><g
     id="g37"
     transform="translate(0,-191.85999)" /><g
     id="g39"
     transform="translate(0,-191.85999)" /><g
     id="g41"
     transform="translate(0,-191.85999)" /><g
     id="g43"
     transform="translate(0,-191.85999)" /><g
     id="g45"
     transform="translate(0,-191.85999)" /></svg>