<?xml version="1.0" encoding="UTF-8" standalone="no"?>
<!-- Generator: Adobe Illustrator 18.1.1, SVG Export Plug-In . SVG Version: 6.00 Build 0)  -->

<svg
   xmlns:dc="http://purl.org/dc/elements/1.1/"
   xmlns:cc="http://creativecommons.org/ns#"
   xmlns:rdf="http://www.w3.org/1999/02/22-rdf-syntax-ns#"
   xmlns:svg="http://www.w3.org/2000/svg"
   xmlns="http://www.w3.org/2000/svg"
   xmlns:sodipodi="http://sodipodi.sourceforge.net/DTD/sodipodi-0.dtd"
   xmlns:inkscape="http://www.inkscape.org/namespaces/inkscape"
   version="1.1"
   id="Capa_1"
   x="0px"
   y="0px"
   viewBox="0 0 299.99999 299.99999"
   xml:space="preserve"
   inkscape:version="0.91 r13725"
   sodipodi:docname="quiz.svg"
   width="300"
   height="300"
   inkscape:export-filename="/home/marco/proj/python4cl/Templates/quiz.png"
   inkscape:export-xdpi="300"
   inkscape:export-ydpi="300"><metadata
     id="metadata39"><rdf:RDF><cc:Work
         rdf:about=""><dc:format>image/svg+xml</dc:format><dc:type
           rdf:resource="http://purl.org/dc/dcmitype/StillImage" /><dc:title></dc:title></cc:Work></rdf:RDF></metadata><defs
     id="defs37" /><sodipodi:namedview
     pagecolor="#ffffff"
     bordercolor="#666666"
     borderopacity="1"
     objecttolerance="10"
     gridtolerance="10"
     guidetolerance="10"
     inkscape:pageopacity="0"
     inkscape:pageshadow="2"
     inkscape:window-width="1855"
     inkscape:window-height="1056"
     id="namedview35"
     showgrid="false"
     inkscape:zoom="0.80265827"
     inkscape:cx="147.01151"
     inkscape:cy="147.01151"
     inkscape:window-x="1985"
     inkscape:window-y="24"
     inkscape:window-maximized="1"
     inkscape:current-layer="Capa_1" /><path
     d="m 128.95783,10.001787 c -1.57036,0.04285 -3.01786,0.857076 -3.87018,2.176021 l -13.79892,20.699342 -46.996347,0 c -2.629319,0 -4.761533,2.132215 -4.761533,4.761535 l 0,47.615342 c 0,2.62932 2.132215,4.761535 4.761533,4.761535 l 47.615347,0 c 2.62932,0 4.76153,-2.132215 4.76153,-4.761535 l 0,-37.567553 -9.52307,14.284603 0,18.521416 -38.092273,0 0,-38.092274 35.884823,0 L 91.546453,62.48818 85.693575,50.781472 c -1.14753,-2.366483 -3.99588,-3.354978 -6.362362,-2.207448 -2.366483,1.14753 -3.354977,3.99588 -2.207447,6.362362 0.01714,0.03428 0.03333,0.06857 0.05142,0.102849 l 9.523069,19.046138 c 1.176099,2.352197 4.035876,3.306409 6.389026,2.13031 0.740895,-0.370447 1.372275,-0.927547 1.832239,-1.617017 L 133.0118,17.460255 c 1.49036,-2.167451 0.94183,-5.131982 -1.22562,-6.622343 -0.83136,-0.570431 -1.82081,-0.863742 -2.82835,-0.836125 l 0,0 z M 150,51.925192 c -2.62932,0 -4.76153,2.132215 -4.76153,4.761534 l 0,9.523069 c 0,2.629319 2.13221,4.761534 4.76153,4.761534 l 85.70762,0 c 2.62932,0 4.76153,-2.132215 4.76153,-4.761534 l 0,-9.523069 c 0,-2.629319 -2.13221,-4.761534 -4.76153,-4.761534 l -85.70762,0 z M 64.292383,99.573869 c -2.629319,0 -4.761533,2.132211 -4.761533,4.761531 l 0,47.61534 c 0,2.62932 2.132215,4.76154 4.761533,4.76154 l 47.615347,0 c 2.62932,0 4.76153,-2.13222 4.76153,-4.76154 l 0,-47.61534 c 0,-2.62932 -2.13221,-4.761531 -4.76153,-4.761531 l -47.615347,0 z m 4.761534,9.523071 38.092273,0 0,38.09227 -38.092273,0 0,-38.09227 z M 150,118.58477 c -2.62932,0 -4.76153,2.13221 -4.76153,4.76153 l 0,9.52307 c 0,2.62932 2.13221,4.76154 4.76153,4.76154 l 85.70762,0 c 2.62932,0 4.76153,-2.13222 4.76153,-4.76154 l 0,-9.52307 c 0,-2.62932 -2.13221,-4.76153 -4.76153,-4.76153 l -85.70762,0 z m -85.707617,47.61534 c -2.629319,0 -4.761533,2.13222 -4.761533,4.76154 l 0,47.61534 c 0,2.62932 2.132215,4.76153 4.761533,4.76153 l 47.615347,0 c 2.62932,0 4.76153,-2.13221 4.76153,-4.76153 l 0,-47.61534 c 0,-2.62932 -2.13221,-4.76154 -4.76153,-4.76154 l -47.615347,0 z m 4.761534,9.52307 38.092273,0 0,38.09227 -38.092273,0 0,-38.09227 z M 150,185.27958 c -2.62932,0 -4.76153,2.13221 -4.76153,4.76153 l 0,9.52307 c 0,2.62932 2.13221,4.76154 4.76153,4.76154 l 85.70762,0 c 2.62932,0 4.76153,-2.13222 4.76153,-4.76154 l 0,-9.52307 c 0,-2.62932 -2.13221,-4.76153 -4.76153,-4.76153 l -85.70762,0 z m -85.707617,47.58201 c -2.629319,0 -4.761533,2.13222 -4.761533,4.76154 l 0,47.61534 c 0,2.62932 2.132215,4.76153 4.761533,4.76153 l 47.615347,0 c 2.62932,0 4.76153,-2.13221 4.76153,-4.76153 l 0,-47.61534 c 0,-2.62932 -2.13221,-4.76154 -4.76153,-4.76154 l -47.615347,0 0,0 z m 4.761534,9.52307 38.092273,0 0,38.09227 -38.092273,0 0,-38.09227 z M 150,251.90773 c -2.62932,0 -4.76153,2.13221 -4.76153,4.76153 l 0,9.52307 c 0,2.62932 2.13221,4.76154 4.76153,4.76154 l 85.70762,0 c 2.62932,0 4.76153,-2.13222 4.76153,-4.76154 l 0,-9.52307 c 0,-2.62932 -2.13221,-4.76153 -4.76153,-4.76153 l -85.70762,0 z"
     id="path3"
     inkscape:connector-curvature="0"
     style="color-interpolation:sRGB;color-rendering:auto;image-rendering:auto;shape-rendering:auto" /><g
     id="g5"
     transform="translate(0,5.9769897)" /><g
     id="g7"
     transform="translate(0,5.9769897)" /><g
     id="g9"
     transform="translate(0,5.9769897)" /><g
     id="g11"
     transform="translate(0,5.9769897)" /><g
     id="g13"
     transform="translate(0,5.9769897)" /><g
     id="g15"
     transform="translate(0,5.9769897)" /><g
     id="g17"
     transform="translate(0,5.9769897)" /><g
     id="g19"
     transform="translate(0,5.9769897)" /><g
     id="g21"
     transform="translate(0,5.9769897)" /><g
     id="g23"
     transform="translate(0,5.9769897)" /><g
     id="g25"
     transform="translate(0,5.9769897)" /><g
     id="g27"
     transform="translate(0,5.9769897)" /><g
     id="g29"
     transform="translate(0,5.9769897)" /><g
     id="g31"
     transform="translate(0,5.9769897)" /><g
     id="g33"
     transform="translate(0,5.9769897)" /></svg>